<?xml version="1.0" encoding="UTF-8" standalone="no"?>
<!--Created with Inkscape (http://www.inkscape.org/)-->
<svg xmlns:dc="http://purl.org/dc/elements/1.1/" xmlns:cc="http://creativecommons.org/ns#" xmlns:rdf="http://www.w3.org/1999/02/22-rdf-syntax-ns#" xmlns:svg="http://www.w3.org/2000/svg" xmlns="http://www.w3.org/2000/svg" xmlns:sodipodi="http://sodipodi.sourceforge.net/DTD/sodipodi-0.dtd" xmlns:inkscape="http://www.inkscape.org/namespaces/inkscape" width="220px" height="250px" viewBox="0 0 295 310" version="1.1" id="svg3790" inkscape:version="0.92.4 (5da689c313, 2019-01-14)" sodipodi:docname="aqua-tile.svg">
  <defs id="defs3784"/>
  <sodipodi:namedview id="base" pagecolor="#ffffff" bordercolor="#666666" borderopacity="1.0" inkscape:pageopacity="0.0" inkscape:pageshadow="2" inkscape:zoom="1.979899" inkscape:cx="706.62306" inkscape:cy="496.70206" inkscape:document-units="mm" inkscape:current-layer="layer1" showgrid="false" inkscape:window-width="100%" inkscape:window-height="100%" inkscape:window-x="-9" inkscape:window-y="-9" inkscape:window-maximized="1"/>
  <metadata id="metadata3787">
    <rdf:RDF>
      <cc:Work rdf:about="">
        <dc:format>
          image/svg+xml
        </dc:format>
        <dc:type rdf:resource="http://purl.org/dc/dcmitype/StillImage"/>
        <dc:title/>
      </cc:Work>
    </rdf:RDF>
  </metadata>
  <g inkscape:label="Layer 1" inkscape:groupmode="layer" id="layer1">
    <path style="fill:#14a4b1;stroke-width:0.35277778" d="m 115.5183,186.2423 c 0.0444,-1.19683 -0.14526,-1.67569 -0.66388,-1.67569 -0.5203,0 -0.55138,-2.20082 -0.36241,-25.66458 0.11369,-14.11552 0.34491,-26.79885 0.51383,-28.18518 0.16892,-1.38632 0.68919,-3.29132 1.15616,-4.23333 l 0.84903,-1.71274 30.95625,-0.0901 30.95625,-0.0901 v 31.04637 31.04638 h -31.7108 c -25.14219,0 -31.70741,-0.0914 -31.69443,-0.44098 z m 17.94247,-1.66568 c 0.12208,-0.005 0.18928,-3.2247 0.14935,-7.15376 -0.0401,-3.9468 0.0768,-7.44487 0.26113,-7.81661 0.32318,-0.65158 7.40054,-7.6274 9.64904,-9.5106 1.80133,-1.50867 1.96616,-1.30504 1.74661,2.15777 -0.10764,1.69774 -0.29159,5.15055 -0.40878,7.67291 l -0.21307,4.58611 -4.82117,4.83753 c -2.65165,2.66064 -4.78168,4.95059 -4.7334,5.08878 0.0483,0.13819 5.01634,0.28455 11.04014,0.32526 7.24862,0.049 10.91221,-0.0465 10.83361,-0.28226 -0.0653,-0.19595 -2.3693,-2.59857 -5.11997,-5.33917 l -5.00122,-4.98291 0.22061,-7.68386 c 0.12134,-4.22613 0.34958,-7.63926 0.5072,-7.58473 0.15763,0.0545 2.66969,2.4663 5.58236,5.35951 l 5.29577,5.26036 0.0949,7.61602 0.0949,7.61603 4.69,0.0972 c 3.55741,0.0737 4.85892,-0.0211 5.38947,-0.39272 0.3847,-0.26946 2.20327,-1.94983 4.04124,-3.73416 l 3.34179,-3.24424 v -4.70037 c 0,-4.57624 -0.021,-4.70598 -0.79375,-4.91308 -0.43657,-0.117 -3.89822,-0.21489 -7.69258,-0.21754 -6.83097,-0.005 -6.91077,-0.0136 -8.11389,-0.90123 -1.43235,-1.05673 -9.85812,-9.69722 -9.85812,-10.10935 0,-0.15572 3.35617,-0.28312 7.45816,-0.28312 h 7.45816 l 5.41446,5.29166 c 2.97795,2.91042 5.5749,5.29167 5.77101,5.29167 0.43679,0 0.48943,-21.4693 0.0543,-22.15528 -0.31222,-0.49223 -2.51068,1.35344 -7.98806,6.7062 l -2.82222,2.75801 -7.37935,-0.0927 c -5.2137,-0.0655 -7.41927,-0.2128 -7.51539,-0.50202 -0.0748,-0.22515 2.10045,-2.6064 4.83392,-5.29167 l 4.96997,-4.8823 8.01348,-0.17639 8.01348,-0.17639 0.10008,-4.22439 0.10007,-4.22438 -3.87428,-3.80131 -3.87428,-3.80131 h -4.90679 -4.90679 l -0.22664,2.16842 c -0.12466,1.19263 -0.22695,4.40731 -0.22731,7.14375 l -8e-4,4.97533 -5.32513,5.25726 c -4.13867,4.08591 -5.40032,5.14702 -5.66258,4.7625 -0.2066,-0.30291 -0.24676,-3.2221 -0.10357,-7.52842 l 0.23388,-7.03365 3.22451,-3.06483 c 1.77348,-1.68565 3.98535,-3.74454 4.91526,-4.5753 0.98409,-0.87916 1.55993,-1.64132 1.37772,-1.82352 -0.37877,-0.37878 -20.3595,-0.21912 -20.74361,0.16575 -0.1487,0.14899 1.80972,2.37156 4.35204,4.93904 l 4.62241,4.66815 0.0346,7.51714 c 0.0294,6.39568 -0.0401,7.47456 -0.46583,7.23178 -0.27523,-0.15693 -2.82643,-2.4911 -5.66932,-5.18703 l -5.16877,-4.90168 0.21625,-6.03443 c 0.11894,-3.31893 0.27968,-6.35324 0.3572,-6.74291 0.0775,-0.38967 0.0252,-0.89573 -0.11622,-1.12458 -0.26483,-0.42852 -3.33719,-0.67242 -6.7596,-0.53661 l -1.93085,0.0766 -3.63531,3.7882 -3.63532,3.78819 0.0981,4.41389 0.0981,4.41389 6.70278,-0.11107 6.70278,-0.11107 2.82222,2.55964 c 4.10061,3.7191 7.9375,7.60732 7.9375,8.04371 0,0.2565 -2.20819,0.37851 -6.85031,0.37851 -3.76767,0 -7.11296,0.10078 -7.43397,0.22397 -0.42507,0.16311 -1.84075,-1.03313 -5.21014,-4.40251 -2.54456,-2.54457 -4.71584,-4.53739 -4.82506,-4.4285 -0.31928,0.31833 -0.44599,19.61323 -0.13087,19.92835 0.15742,0.15742 2.03222,-1.58782 4.16621,-3.87831 2.13399,-2.29051 4.30134,-4.42595 4.81635,-4.74544 0.79023,-0.49023 2.07042,-0.58089 8.20208,-0.58089 3.99614,0 7.26666,0.11906 7.26783,0.26458 0.001,0.14552 -2.49915,2.67979 -5.55625,5.63171 l -5.55837,5.36714 -6.17361,0.0175 c -3.39548,0.01 -6.5308,0.11327 -6.96736,0.23026 -0.77102,0.20662 -0.79375,0.34276 -0.79375,4.75348 v 4.54076 l 3.69444,3.74402 3.69444,3.74401 4.15487,-0.20202 c 2.28517,-0.11111 4.25474,-0.20653 4.37682,-0.21203 z" id="path3773" inkscape:connector-curvature="0"/>
  </g>
</svg>
