<?xml version="1.0" encoding="UTF-8" standalone="no"?>
<!--Created with Inkscape (http://www.inkscape.org/)-->
<svg xmlns:dc="http://purl.org/dc/elements/1.1/" xmlns:cc="http://creativecommons.org/ns#" xmlns:rdf="http://www.w3.org/1999/02/22-rdf-syntax-ns#" xmlns:svg="http://www.w3.org/2000/svg" xmlns="http://www.w3.org/2000/svg" xmlns:sodipodi="http://sodipodi.sourceforge.net/DTD/sodipodi-0.dtd" xmlns:inkscape="http://www.inkscape.org/namespaces/inkscape" version="1.1" id="svg3743" width="100px" height="100px" viewBox="-40 -110 295 450" sodipodi:docname="black-tile.svg" inkscape:version="0.92.4 (5da689c313, 2019-01-14)">
  <metadata id="metadata3749">
    <rdf:RDF>
      <cc:Work rdf:about="">
        <dc:format>
          image/svg+xml
        </dc:format>
        <dc:type rdf:resource="http://purl.org/dc/dcmitype/StillImage"/>
        <dc:title/>
      </cc:Work>
    </rdf:RDF>
  </metadata>
  <defs id="defs3747"/>
  <sodipodi:namedview pagecolor="#ffffff" bordercolor="#666666" borderopacity="1" objecttolerance="10" gridtolerance="10" guidetolerance="10" inkscape:pageopacity="0" inkscape:pageshadow="2" inkscape:window-width="988" inkscape:window-height="831" id="namedview3745" showgrid="false" inkscape:zoom="2.0701754" inkscape:cx="102.12488" inkscape:cy="111.40369" inkscape:window-x="0" inkscape:window-y="0" inkscape:window-maximized="0" inkscape:current-layer="svg3743"/>
  <g id="g3810" transform="translate(10.627116,-3.8644067)">
    <path style="fill:#409298;stroke-width:1.33333337" d="M -9.6610022,118.83051 V 4.8305082 H 104.339 h 114 v 114.0000018 114 h -114 -114.0000022 z" id="path3814" inkscape:connector-curvature="0"/>
    <path style="fill:#0d1c1f;stroke-width:1.33333337" d="m -9.6068146,196.49717 0.054187,-36.33333 3.9458125,4.61631 c 2.1701968,2.53896 3.9458124,5.9499 3.9458124,7.57986 0,3.99278 2.29871787,9.80383 3.8781679,9.80383 1.9706814,0 13.5477738,-12.3842 13.0397098,-13.94877 -0.247283,-0.76151 -3.585621,-1.99466 -7.418531,-2.74032 -5.6260199,-1.09451 -7.98352643,-2.45456 -12.234136,-7.05794 l -5.2652107,-5.70218 V 116.1059 c 0,-24.240457 0.4642295,-36.608725 1.3740687,-36.608725 0.7557377,0 3.1584321,-2.032277 5.3393209,-4.516173 2.90254707,-3.305819 5.4823393,-4.745603 9.6259317,-5.37224 C 16.389707,68.140104 16.83235,67.187471 11.070571,60.155979 8.2699565,56.738196 5.1520045,53.624656 4.1417911,53.237002 c -3.0581072,-1.173506 -5.7995948,2.301194 -5.8569809,7.423433 -0.037847,3.378116 -1.2441324,6.228885 -4,9.453041 l -3.9458124,4.616302 V 39.780143 4.8305082 H 25.13466 59.930323 l -6.462329,5.9453678 c -5.119168,4.709654 -7.802279,6.13412 -12.909206,6.853503 -3.680865,0.518503 -6.761672,1.728481 -7.180586,2.820159 -0.904518,2.357132 9.929772,13.714304 13.082898,13.714304 2.317655,0 3.810044,-3.585424 3.884888,-9.333334 0.02919,-2.241492 2.697594,-6.062936 8.146506,-11.666666 l 8.103102,-8.3333338 32.205034,0.043105 32.20503,0.043105 7.32795,7.9355548 c 5.59239,6.056096 7.64637,9.436535 8.67244,14.273082 0.84983,4.005742 2.129,6.488606 3.47665,6.74814 1.17267,0.225837 5.02552,-2.208939 8.56188,-5.410611 7.93806,-7.186792 7.53815,-9.821115 -1.67646,-11.043477 -6.89972,-0.915281 -8.23668,-1.692804 -14.27858,-8.3038643 l -3.91612,-4.2850339 h 35.19374 35.19373 l -5.76204,5.8710902 c -4.89008,4.982618 -6.88325,6.041929 -13.17111,7 -4.075,0.620901 -7.61974,1.767132 -7.87722,2.54718 -0.25748,0.780048 2.3629,4.289878 5.82306,7.799622 6.11194,6.199499 10.42668,8.782108 14.67223,8.782108 1.86373,0 1.86469,-0.308064 0.009,-3.13901 -3.6242,-5.531234 -0.69465,-13.641839 7.45796,-20.647729 2.55144,-2.192565 3.45908,-3.9702687 2.91015,-5.6998061 -0.60548,-1.909121 -0.13451,-2.5134551 1.95923,-2.5134551 h 2.75652 v 114.0000012 114 h -114 -114.0000022 z m 9.52230493,23.66667 c 2.17879277,-1.83333 5.60072877,-3.33333 7.60430217,-3.33333 2.003572,0 4.7653675,-0.8208 6.1373235,-1.824 2.357256,-1.72367 2.154658,-2.18204 -3.6832729,-8.33334 -5.2057226,-5.48514 -6.5546053,-6.27829 -8.5729581,-5.04096 -1.46443467,0.89776 -2.5609193,3.44088 -2.8216185,6.54431 -0.234519,2.79176 -1.884519,6.98764 -3.6666667,9.32415 -1.7821477,2.33652 -3.2402687,4.64158 -3.2402687,5.12236 0,2.00312 4.5549407,0.64424 8.24315923,-2.45919 z M 59.672331,222.4254 c 0,-0.58948 -2.076653,-3.08455 -4.614784,-5.54461 -2.538132,-2.46006 -4.360627,-4.88406 -4.049989,-5.38668 1.063254,-1.72038 -2.124891,-10.6636 -3.801438,-10.6636 -2.173654,0 -12.867122,10.58096 -12.867122,12.73174 0,2.02444 3.011062,3.26826 7.911872,3.26826 2.031574,0 5.732502,1.44861 8.224284,3.21914 4.511301,3.20551 9.197177,4.41592 9.197177,2.37575 z m 87.233389,-2.81779 c 1.32804,-1.46746 4.99257,-2.9247 8.60374,-3.42137 9.09735,-1.2512 10.27659,-2.25855 7.53758,-6.4388 -1.23195,-1.88019 -4.32219,-5.00676 -6.86722,-6.94793 -5.58856,-4.26262 -8.50749,-2.82488 -8.50749,4.19041 0,3.29716 -1.28852,5.92581 -4.82181,9.83675 -4.74627,5.25354 -4.7704,5.33717 -1.53999,5.33717 1.80501,0 4.32284,-1.15031 5.59519,-2.55623 z m 62.09994,1.74871 c 0,-0.44415 -1.41548,-2.48973 -3.14552,-4.54577 -1.92858,-2.292 -3.49386,-6.3642 -4.04592,-10.5258 -0.49522,-3.73318 -1.52434,-6.78758 -2.28694,-6.78758 -0.7626,0 -4.49194,2.96608 -8.28742,6.5913 -7.97581,7.618 -7.55049,9.29194 2.64986,10.42912 4.14394,0.46198 7.07206,1.59964 8.19154,3.18262 1.59887,2.26084 6.9244,3.53455 6.9244,1.65611 z M 97.005664,213.16737 c 0,-2.39838 -5.116846,-11.00353 -6.542993,-11.00353 -1.047861,0 -5.791156,4.92836 -7.262977,7.54635 -1.980436,3.52268 0.598813,5.47929 7.22292,5.47929 4.9947,0 6.58305,-0.48789 6.58305,-2.02211 z m 13.666666,1.01467 c 2.55093,-0.0127 3.66667,-0.70601 3.66667,-2.27857 0,-2.24128 -6.26737,-9.73963 -8.14071,-9.73963 -0.53632,0 -2.28242,2.11523 -3.88021,4.70051 -3.455974,5.59189 -2.67734,9.30989 1.70379,8.13564 1.64109,-0.43986 4.63379,-0.80794 6.65046,-0.81795 z m -27.410063,-10.93357 4.383556,-4.24871 -3.653412,-2.40917 c -2.009377,-1.32506 -5.378413,-2.41314 -7.486747,-2.41796 -3.583396,-0.008 -3.778998,0.26288 -3,4.15788 0.458334,2.29166 0.833334,5.29166 0.833334,6.66666 0,3.8111 3.9947,3.02826 8.923269,-1.7487 z m -63.065921,0.80632 c 0.445125,-1.15998 0.809318,-3.92675 0.809318,-6.14839 0,-3.94213 -0.12032,-4.01723 -5,-3.12052 -7.3479062,1.35025 -8.0419449,2.76999 -3.577777,7.31871 4.406531,4.48998 6.584083,5.03664 7.768459,1.9502 z m 15.338881,-1.52119 c 5.232105,-4.59109 5.224673,-6.48557 -0.02956,-7.53643 -7.326925,-1.46538 -7.833333,-1.18884 -7.833333,4.27778 0,8.00988 1.662905,8.69904 7.862896,3.25865 z m 85.588873,2.23352 c 1.95259,-1.045 2.29475,-1.95967 1.35874,-3.63224 -0.7924,-1.41592 -0.7584,-3.15607 0.0927,-4.74643 3.07494,-5.74558 -4.3536,-6.24473 -10.90071,-0.73244 l -3.3308,2.80434 4.61377,3.85174 c 5.30498,4.4288 4.7756,4.26966 8.16626,2.45503 z m 49.45002,-5.33921 c 0.28337,-2.97144 0.36473,-5.5531 0.18081,-5.73703 -0.18393,-0.18393 -2.49885,-0.0817 -5.14425,0.22711 -6.31959,0.73777 -7.39982,3.79309 -2.75395,7.78929 5.27627,4.53845 7.11912,3.99415 7.71739,-2.27937 z m 16.32774,1.51094 c 4.53547,-4.73401 3.59455,-6.77501 -3.12333,-6.77501 -4.78475,0 -5.03659,0.20612 -4.47984,3.66667 1.35056,8.39457 2.20427,8.74358 7.60317,3.10834 z m -83.47357,-8.44926 c 0.48438,-4.21107 -1.94804,-5.73526 -7.092274,-4.44414 -6.17884,1.55079 -3.161753,9.26731 3.32695,8.50903 2.536804,-0.29647 3.444594,-1.27647 3.765324,-4.06489 z m -19.089292,-5.66571 4,-3.32671 -4,-3.3267 c -4.323986,-3.59616 -8.443522,-4.34046 -9.261508,-1.6733 -0.281132,0.91667 -0.824579,3.91667 -1.20766,6.66667 -0.656286,4.71124 -0.489594,4.99961 2.886329,4.99337 1.970561,-0.004 5.382839,-1.50364 7.582839,-3.33333 z m -63.946532,0.58677 c 1.201033,-1.9433 -0.534008,-10.58014 -2.12543,-10.58014 -2.072558,0 -9.3623902,7.03028 -8.8582115,8.54281 0.4294453,1.28833 4.8623265,3.01831 8.5181505,3.32428 0.873388,0.0731 1.982859,-0.50603 2.465491,-1.28695 z m 104.072224,-3.09709 c -0.41577,-1.54901 -0.76415,-4.18521 -0.77416,-5.85823 -0.0107,-1.67302 -0.88552,-3.37468 -1.94558,-3.78145 -2.1448,-0.82304 -11.40585,5.95461 -11.40591,8.34736 -6e-5,2.05504 9.17345,5.60141 12.34439,4.7722 1.83137,-0.47892 2.32691,-1.44701 1.78126,-3.47988 z m -85.392063,1.74193 c 1.010367,-1.63481 -5.714883,-9.22498 -8.173765,-9.22498 -1.920707,0 -3.226531,3.01204 -3.226531,7.44238 0,2.86472 0.585971,3.22428 5.254644,3.22428 2.890055,0 5.655597,-0.64876 6.145652,-1.44168 z M 170.62462,182.1828 c -0.20957,-2.55624 -0.92957,-5.19624 -1.6,-5.86667 -1.58024,-1.58024 -11.20174,7.93392 -9.99614,9.88462 0.48873,0.79078 3.38353,1.25598 6.43289,1.03377 5.45035,-0.39717 5.53784,-0.48277 5.16325,-5.05172 z m 17.60532,4.50505 c 2.88102,-1.10554 2.6468,-3.11308 -0.79002,-6.77141 -4.54639,-4.8394 -7.39667,-4.03829 -7.99611,2.2474 -0.47955,5.02856 -0.30331,5.33333 3.08424,5.33333 1.97607,0 4.54192,-0.36418 5.70189,-0.80932 z M 49.498616,177.83051 c 0.442183,-1.65 0.812162,-4.51186 0.822175,-6.35967 0.01333,-2.45625 3.334645,-6.64335 12.35154,-15.57119 11.235864,-11.12489 12.906335,-12.29422 18.772709,-13.14096 3.693834,-0.53316 6.755406,-1.753 7.180588,-2.861 0.911815,-2.37615 -9.901354,-13.73385 -13.0754,-13.73385 -2.323338,0 -3.828448,3.63029 -3.85969,9.30948 -0.0132,2.39239 -3.613724,6.91853 -12.993191,16.33333 -10.996271,11.03768 -13.623012,13.02386 -17.224284,13.02386 -9.949517,0 -10.939968,3.32558 -3.238769,10.87465 5.946938,5.82947 10.063506,6.60617 11.264322,2.12535 z m 45.9314,-2.88874 c 2.11184,-3.5793 2.356535,-4.98812 1.134215,-6.53012 -2.229825,-2.81301 -13.347683,-1.16282 -13.969864,2.07351 -0.463495,2.41089 7.434357,10.69448 9.17236,9.62035 0.53378,-0.32991 2.18226,-2.65358 3.663289,-5.16374 z m 64.145284,-0.012 c 3.42035,-3.48508 5.49114,-6.68396 5.05783,-7.81316 -0.42499,-1.10748 -3.46975,-2.27497 -7.23597,-2.77457 -5.97696,-0.79288 -7.46495,-1.82077 -18.41843,-12.72345 -10.28908,-10.24136 -12.10211,-12.72868 -13.27795,-18.21622 -0.74898,-3.49543 -2.106,-6.60202 -3.01559,-6.90354 -0.9096,-0.30153 -4.8096,2.46592 -8.66667,6.14989 -8.00979,7.65031 -7.66853,9.39348 2.05346,10.48929 6.21121,0.7001 12.93368,5.41967 12.93368,9.0802 0,1.07032 1.0035,1.94604 2.22998,1.94604 1.22649,0 5.42649,3.27399 9.33333,7.27552 5.34549,5.47504 7.10336,8.25272 7.10336,11.22428 0,9.9242 3.69625,10.62778 11.90297,2.26572 z m 41.36026,0.90115 c 0.7637,-2.75 1.39192,-5.77403 1.396,-6.72008 0.004,-0.94604 2.40744,-4.00313 5.34077,-6.79355 3.00255,-2.85625 5.33333,-6.32909 5.33333,-7.94658 0,-4.14588 -1.3909,-3.6073 -7.95389,3.07989 -4.65964,4.74784 -7.07776,6.132 -11.94428,6.83709 -7.19479,1.04243 -10.77632,2.68306 -10.74808,4.92347 0.0133,1.01752 0.50099,0.87615 1.31292,-0.38024 1.12223,-1.73652 1.29519,-1.74131 1.31292,-0.0364 0.0231,2.21552 10.48973,11.89204 12.95775,11.97951 0.88218,0.0312 2.22884,-2.19315 2.99256,-4.94315 z m -88.71509,-0.43564 c 3.70892,-4.40779 3.93913,-5.10536 2.43144,-7.3674 -1.49903,-2.24905 -13.66842,-2.02393 -14.54835,0.26913 -0.747117,1.94695 5.46415,11.20058 7.5181,11.20058 0.63083,0 2.70029,-1.84604 4.59881,-4.10231 z M 23.093014,140.68917 c 0.5332,-0.86273 1.402048,-0.83572 2.50281,0.0779 2.698595,2.23961 14.076507,0.19063 14.076507,-2.53497 0,-2.3673 -6.573311,-9.40156 -8.785481,-9.40156 -0.718428,0 -2.369519,1.8 -3.669091,4 -1.299572,2.2 -3.099572,4 -4,4 -0.900428,0 -2.700428,-1.8 -4,-4 -2.830969,-4.79245 -3.602856,-4.90094 -7.114655,-1 -3.8365622,4.26169 -4.5443755,5.81919 -3.6746142,8.08574 0.8842187,2.30424 13.3132462,2.95934 14.6645242,0.77292 z M 172.6696,140.55611 c 1.1475,-0.95235 2.19044,-0.95556 3.33606,-0.0107 0.92778,0.76553 4.47444,1.05659 8,0.65653 7.55198,-0.85696 8.28399,-3.33745 2.59371,-8.78907 -4.78467,-4.5836 -6.37936,-4.50907 -8.92704,0.41761 -2.60084,5.02947 -3.68397,5.00869 -7.71979,-0.14812 -3.71688,-4.74929 -6.79421,-4.4978 -10.69522,0.87406 -3.92498,5.40486 -1.9819,8.38516 5.46686,8.38516 3.4518,0 7.02724,-0.62346 7.94542,-1.38548 z M 9.4228765,130.42422 c 1.9705335,-2.0568 3.5827875,-4.14139 3.5827875,-4.63243 0,-1.39302 -7.5674849,-4.96128 -10.5217637,-4.96128 -3.45351397,0 -4.7958941,2.2757 -2.7771881,4.70809 0.878508,1.05854 1.22821533,2.8864 0.77712733,4.06192 -2.13880363,5.57363 3.85882897,6.12629 8.93903697,0.8237 z M 158.31964,129.51715 c 2.47706,-2.55568 4.24476,-4.87938 3.92822,-5.16377 -2.57056,-2.30946 -9.8746,-4.83519 -12.01661,-4.15534 -2.21703,0.70366 -2.51081,1.62465 -1.82948,5.73537 1.66749,10.06068 3.12849,10.5886 9.91787,3.58374 z m -111.876037,1.92404 c 2.118656,-1.13387 2.33068,-1.885 1.153153,-4.08523 -1.050808,-1.96345 -1.024226,-3.20027 0.09784,-4.55227 3.765264,-4.53687 -2.550274,-6.11352 -9.239112,-2.30652 -5.15397,2.93343 -5.15656,4.55445 -0.01419,8.88148 4.694621,3.95026 4.546433,3.91207 8.002305,2.06254 z m 65.144407,-4.50591 c 3.63225,-3.88314 2.88286,-5.35569 -3.31181,-6.50768 -5.9346,-1.10364 -7.74547,0.51855 -6.5896,5.90301 0.5313,2.47495 1.23184,4.95152 1.55678,5.5035 0.81694,1.38779 4.47045,-0.75706 8.34463,-4.89883 z m -16.75606,1.56189 c 1.809356,-6.75158 1.202906,-7.66666 -5.08093,-7.66666 -7.55092,0 -8.657973,1.88692 -3.974886,6.77501 4.458742,4.65393 7.955302,4.9982 9.055816,0.89165 z m 104.24213,-4 c 0.20969,-5.11847 -0.16548,-6.33333 -1.95588,-6.33333 -3.42964,0 -11.44587,4.50273 -11.44587,6.42916 0,2.73087 6.34965,6.94626 9.90447,6.57535 2.8838,-0.3009 3.26617,-1.0303 3.49728,-6.67118 z M 28.798958,119.57188 c 0.868333,-6.15179 -7.988542,-8.42764 -9.859292,-2.53343 -1.138396,3.58677 1.827074,6.67228 5.95187,6.1928 2.498114,-0.29039 3.574123,-1.29809 3.907422,-3.65937 z m 149.273372,2.32529 c 3.97789,-3.97789 0.0344,-9.96675 -5.62715,-8.54579 -3.82962,0.96118 -5.67974,5.44648 -3.38641,8.20978 1.94823,2.34747 6.82047,2.52911 9.01356,0.33601 z M 9.0632111,114.63416 c 5.1590719,-3.41411 5.2568489,-3.6146 2.9863309,-6.1235 -3.3193269,-3.66781 -6.7663309,-5.28128 -9.4578775,-4.42701 -3.7396172,1.18691 -3.04108257,13.84445 0.7759204,14.05977 0.1990561,0.0112 2.7620876,-1.56793 5.6956262,-3.50926 z M 158.4908,113.91832 c 2.84984,-1.6017 5.18153,-3.30588 5.18153,-3.78705 0,-0.48118 -2.17612,-2.4232 -4.83583,-4.3156 -6.58149,-4.6828 -10.14442,-3.39007 -10.4266,3.78306 -0.1132,2.87748 0.009,5.68178 0.27367,6.23178 0.85309,1.77923 4.50673,1.06685 9.80723,-1.91219 z M 48.865408,113.66617 c 0.835779,-1.00705 1.124792,-2.85985 0.642251,-4.11733 -0.48254,-1.25748 -0.942892,-3.57549 -1.023004,-5.15115 -0.228865,-4.501368 -4.216,-4.14956 -9.675537,0.85373 l -5.007166,4.58873 5.93519,2.77982 c 7.140921,3.34455 7.213869,3.35291 9.128266,1.0462 z m 151.602412,-3.85819 c -0.43752,-2.18761 -0.79549,-5.10247 -0.79549,-6.47747 0,-1.50696 -0.92684,-2.48448 -2.33333,-2.46092 -3.12754,0.0524 -11.34807,7.65238 -10.23146,9.45911 1.40546,2.27407 8.69295,4.88531 11.54935,4.13834 2.10117,-0.54947 2.45223,-1.45261 1.81093,-4.65906 z m -104.813696,1.35586 c -0.02953,-4.86686 -1.508822,-9 -3.22118,-9 -0.87727,0 -3.285229,1.76418 -5.351021,3.9204 -4.99428,5.21291 -3.853496,8.0796 3.215228,8.0796 4.690767,0 5.372861,-0.38198 5.356973,-3 z m 16.575826,2.19068 c 3.33335,-1.27912 2.48085,-4.10471 -2.35014,-7.78949 -2.45255,-1.87065 -4.82435,-3.40119 -5.27066,-3.40119 -1.17139,0 -3.63434,9.53806 -2.80814,10.87487 0.80532,1.30304 7.34055,1.50094 10.42894,0.31581 z M 23.6655,96.660435 c 0.03287,-4.025765 -14.9265449,-3.7287 -15.7032222,0.311837 -0.2264307,1.17797 1.8110427,4.093348 4.5277182,6.478618 l 4.939411,4.33686 3.114631,-5.14528 c 1.713046,-2.829915 3.117705,-5.521828 3.121462,-5.982035 z m 60.913648,4.651625 c 3.167918,-3.401814 5.75985,-6.673612 5.75985,-7.270662 0,-1.243343 -8.633327,-3.85902 -12.77375,-3.87012 C 75.82851,90.166622 70.426486,85.663794 63.116159,78.127315 52.67682,67.365027 51.345702,65.425824 50.54232,59.809496 c -0.605192,-4.23082 -1.599966,-6.416382 -3.047334,-6.69512 -2.152222,-0.41448 -14.489322,10.814366 -14.489322,13.18773 0,1.642146 5.900766,3.861736 10.266402,3.861736 4.586886,0 28.400265,23.051941 28.400265,27.49216 0,4.912378 2.440975,9.841168 4.873816,9.841168 1.250233,0 4.865084,-2.7833 8.033001,-6.18511 z m 39.126182,2.76498 c 0.71519,-1.88107 1.30033,-4.742921 1.30033,-6.359665 0,-1.935537 4.21244,-7.124519 12.33334,-15.192468 10.57957,-10.510601 13.13514,-12.379019 17.9721,-13.139619 3.10134,-0.487676 6.66883,-1.639868 7.92776,-2.560426 2.07031,-1.513843 1.62988,-2.325951 -4.61021,-8.500715 -3.79456,-3.754835 -7.52689,-6.826972 -8.29409,-6.826972 -1.78482,0 -3.99556,5.780041 -3.99556,10.446467 0,2.782682 -2.81647,6.38433 -12.33334,15.771672 -11.11104,10.959822 -12.95018,12.252042 -18.55764,13.039013 -9.65193,1.354589 -10.16993,3.293689 -2.81654,10.543443 7.18326,7.08202 9.24155,7.5986 11.07385,2.77927 z m -86.29821,-2.08049 c 4.925388,-6.293482 3.48416,-9.166042 -4.59881,-9.166042 -4.496698,0 -6.785979,0.60712 -7.295442,1.934759 -0.743793,1.938295 5.526012,11.398573 7.554411,11.398573 0.593144,0 2.546073,-1.87528 4.339841,-4.16729 z m 133.61849,-1.21027 c 1.64113,-3.639382 1.98733,-5.815158 1.07108,-6.731412 -1.71055,-1.710548 -14.01117,0.202746 -14.70608,2.287448 -0.73313,2.199419 6.14619,9.821524 8.86441,9.821524 1.45008,0 3.27148,-2.05315 4.77059,-5.37756 z m 17.27067,0.88543 c 4.77188,-6.256271 3.45622,-8.841202 -4.49994,-8.841202 -3.44153,0 -6.91585,0.658512 -7.7207,1.463362 -2.50235,2.502342 2.80638,9.83458 8.52884,11.77973 0.14601,0.0496 1.80732,-1.93122 3.6918,-4.40189 z m 25.69485,-21.795738 c 0.29688,-0.891661 -2.11635,-4.491661 -5.36272,-8 -4.12052,-4.453021 -6.14756,-7.954204 -6.71421,-11.597054 -0.44644,-2.870042 -1.37379,-5.780328 -2.06076,-6.467304 -1.43522,-1.435207 -13.51444,5.118089 -13.51444,7.331933 0,0.76614 -1.05,2.168735 -2.33334,3.116877 -3.51938,2.600164 -0.6404,4.577492 8.46359,5.812931 6.92764,0.940101 8.34729,1.683369 12.5088,6.549012 4.56783,5.340712 7.91579,6.549281 9.01308,3.253605 z M 96.672331,67.17755 c 1.122273,-0.902462 2.221636,-0.879644 3.365709,0.06985 2.25618,1.87246 13.00233,0.377427 13.88863,-1.932221 0.75306,-1.962462 -6.01936,-10.899234 -8.37771,-11.05508 -0.80119,-0.05294 -2.58763,2.00374 -3.96987,4.570406 -1.38224,2.566667 -2.946192,4.666667 -3.475443,4.666667 -0.529249,0 -2.583424,-2.125439 -4.564831,-4.723197 l -3.602558,-4.723198 -3.79863,3.639319 c -3.425164,3.281516 -4.941336,8.219927 -3.09156,10.069703 1.255622,1.255621 11.906715,0.800498 13.626263,-0.582252 z M 82.95927,56.692386 c 2.592184,-2.275968 4.713061,-4.584843 4.713061,-5.130835 0,-1.922992 -10.357497,-5.675536 -13.186717,-4.777577 -2.998167,0.951581 -3.758819,3.971449 -1.371914,5.446637 0.792754,0.489949 1.103679,2.236284 0.690946,3.880745 -1.519172,6.052864 2.623116,6.315768 9.154624,0.58103 z M 35.69424,55.264362 c 4.818446,-5.042042 4.582299,-6.60169 -1.227506,-8.107162 -4.613858,-1.19557 -8.375242,0.529946 -7.493179,3.437459 0.261827,0.863051 0.837593,3.219183 1.279481,5.235849 1.036714,4.731299 2.483903,4.621194 7.441204,-0.566146 z m 134.90081,-3.126194 c 0.60855,-5.212605 -0.33729,-5.889682 -6.92272,-4.955612 -7.22089,1.024207 -7.60803,2.445259 -2.08519,7.653976 5.79519,5.465563 8.13671,4.764151 9.00791,-2.698364 z m 15.63228,2.807548 c 4.95891,-5.116286 4.69343,-6.732189 -1.30307,-7.931489 -6.34032,-1.268063 -9.7203,1.141089 -8.70726,6.206283 0.7356,3.678004 2.69205,6.196294 4.86044,6.256248 0.40614,0.0112 2.7236,-2.027739 5.14989,-4.531042 z M 21.26348,53.45642 c 0.30226,-2.589081 0.267904,-4.989081 -0.07635,-5.333333 -0.344254,-0.344252 -2.944744,-0.625912 -5.778871,-0.625912 -6.9564145,0 -8.2538039,3.304355 -2.960396,7.539908 5.646983,4.518469 8.156096,4.068579 8.815613,-1.580663 z m 101.29384,-1.413761 c 0.65595,-8.247541 -1.78513,-9.539485 -9.42094,-4.986037 l -5.6894,3.39275 3.69546,3.857235 c 2.29707,2.397625 5.0639,3.857235 7.31176,3.857235 3.33699,0 3.65388,-0.472756 4.10312,-6.121183 z m -20.48499,-3.478817 c 0.88,-0.88 1.6,-2.96857 1.6,-4.641264 0,-3.656328 -5.596744,-5.639878 -8.68398,-3.0777 -3.737623,3.101952 -1.502287,9.318964 3.350648,9.318964 1.173333,0 2.853332,-0.72 3.733332,-1.6 z M 82.929451,40.698807 c 2.608584,-1.539103 4.74288,-3.285765 4.74288,-3.881475 0,-1.230933 -7.731477,-7.997584 -9.1023,-7.966406 -2.768225,0.06296 -4.649163,2.989601 -4.828784,7.51334 -0.112093,2.8231 0.012,5.582909 0.275659,6.132909 0.832132,1.735523 4.00977,1.09434 8.912545,-1.798368 z M 21.187132,40.204596 c 0.344252,-0.344252 0.378608,-2.744252 0.07635,-5.333333 -0.388799,-3.330349 -1.214004,-4.707421 -2.820901,-4.707421 -2.95222,0 -9.9949335,7.351748 -8.8372095,9.224986 0.8666735,1.402307 10.3287575,2.068774 11.5817635,0.815768 z m 16.37615,-0.183406 c 3.130057,-1.201116 2.577037,-3.576744 -1.811354,-7.78109 -5.212905,-4.99428 -8.079597,-3.853496 -8.079597,3.215228 0,5.050056 0.235348,5.37518 3.890951,5.37518 2.140021,0 4.840021,-0.364193 6,-0.809318 z m 86.315688,-2.524015 c -0.25301,-1.466667 -0.42717,-4.316667 -0.38701,-6.333333 0.10232,-5.138367 -4.43885,-4.881922 -10.06196,0.568212 l -4.36929,4.234877 3.63915,2.368349 c 2.00152,1.302591 5.43914,2.246896 7.63914,2.098455 3.19933,-0.215869 3.90792,-0.803675 3.53997,-2.93656 z M 170.339,35.455328 c 0,-7.041685 -2.6582,-8.00337 -8.56139,-3.097346 -7.1138,5.912134 -6.15589,8.162689 3.56139,8.367264 4.96833,0.1046 5,0.07123 5,-5.269918 z m 17.89094,4.565862 c 1.15999,-0.445126 2.10906,-1.378948 2.10906,-2.075162 0,-1.49958 -8.10303,-9.11552 -9.69852,-9.11552 -1.14038,0 -4.96815,8.185279 -4.96815,10.623842 0,1.483789 9.09789,1.89446 12.55761,0.56684 z M 12.279923,27.204811 c 4.458809,-5.209115 4.659396,-5.791924 2.529456,-7.349375 -1.272367,-0.930377 -4.249969,-1.691594 -6.6168959,-1.691594 -3.1909773,0 -5.4414184,-1.20641 -8.70522103,-4.666667 C -2.9336831,10.930508 -5.3824293,8.8305082 -5.9543961,8.8305082 c -2.035749,0 -0.9953592,5.6509528 1.750299,9.5068738 1.534631,2.15519 3.0940761,5.847813 3.46543317,8.205828 1.6552752,10.510534 4.46600043,10.653376 13.01858693,0.661601 z m 83.142492,0.451976 c 3.564973,-6.343012 2.010419,-8.348116 -5.836583,-7.528171 -2.885758,0.301538 -5.696834,0.582819 -6.246834,0.625071 -3.721784,0.285912 3.767218,12.076821 7.6706,12.076821 0.827762,0 2.81353,-2.328174 4.412817,-5.173721 z m 16.873855,0.681588 c 4.04391,-5.301831 3.33977,-8.833025 -1.76659,-8.859407 -1.93821,-0.01 -4.81617,-0.364865 -6.39548,-0.788561 -4.755113,-1.275702 -5.401458,3.989861 -1.17063,9.536763 1.93113,2.531836 4.05007,4.603338 4.70876,4.603338 0.65869,0 2.73947,-2.02146 4.62394,-4.492133 z m 94.70939,1.825467 c -0.45322,-0.733334 -1.42404,-1.333334 -2.15737,-1.333334 -0.73333,0 -0.96252,0.6 -0.50929,1.333334 0.45322,0.733333 1.42404,1.333333 2.15737,1.333333 0.73333,0 0.96252,-0.6 0.50929,-1.333333 z" id="path3812" inkscape:connector-curvature="0"/>
  </g>
</svg>
