<?xml version="1.0" encoding="UTF-8" standalone="no"?>
<!--Created with Inkscape (http://www.inkscape.org/)-->
<svg xmlns:dc="http://purl.org/dc/elements/1.1/" xmlns:cc="http://creativecommons.org/ns#" xmlns:rdf="http://www.w3.org/1999/02/22-rdf-syntax-ns#" xmlns:svg="http://www.w3.org/2000/svg" xmlns="http://www.w3.org/2000/svg" xmlns:sodipodi="http://sodipodi.sourceforge.net/DTD/sodipodi-0.dtd" xmlns:inkscape="http://www.inkscape.org/namespaces/inkscape" version="1.1" id="svg3753" width="100px" height="100px" viewBox="0 -110 240 450" sodipodi:docname="orange-tile.svg" inkscape:version="0.92.4 (5da689c313, 2019-01-14)">
  <metadata id="metadata3759">
    <rdf:RDF>
      <cc:Work rdf:about="">
        <dc:format>
          image/svg+xml
        </dc:format>
        <dc:type rdf:resource="http://purl.org/dc/dcmitype/StillImage"/>
        <dc:title/>
      </cc:Work>
    </rdf:RDF>
  </metadata>
  <defs id="defs3757"/>
  <sodipodi:namedview pagecolor="#ffffff" bordercolor="#666666" borderopacity="1" objecttolerance="10" gridtolerance="10" guidetolerance="10" inkscape:pageopacity="0" inkscape:pageshadow="2" inkscape:window-width="1218" inkscape:window-height="932" id="namedview3755" showgrid="false" inkscape:zoom="2.8444977" inkscape:cx="103.81306" inkscape:cy="128.33203" inkscape:window-x="0" inkscape:window-y="0" inkscape:window-maximized="0" inkscape:current-layer="svg3753"/>
  <g id="g3826" transform="translate(0.43686133,0.29123845)">
    <path style="fill:#ee9651;stroke-width:1.33333337" d="M 0,117.33334 V 0 H 114.66667 229.33333 V 117.33334 234.66667 H 114.66667 0 Z" id="path3830" inkscape:connector-curvature="0"/>
    <path style="fill:#de3b3a;stroke-width:1.33333337" d="m 102.75634,225.5009 c -0.78265,-1.4624 -1.42301,-3.89836 -1.42301,-5.41324 0,-3.25862 -4.624339,-3.85844 -5.815499,-0.75432 -1.291574,3.36578 -3.82529,2.27366 -9.784991,-4.21768 -5.520265,-6.01272 -5.793997,-6.14028 -8.303296,-3.86939 -3.360293,3.04101 -5.034996,1.87012 -8.729032,-6.10308 l -3.025414,-6.53004 -2.170883,3.31317 c -1.193985,1.82226 -2.170883,4.4989 -2.170883,5.94808 0,3.81036 -2.44001,4.74403 -5.399205,2.06599 -2.447685,-2.21512 -2.922154,-2.16033 -10.416092,1.20275 -13.50251,6.05956 -20.106279,6.15248 -13.518035,0.1902 1.466666,-1.32732 2.666666,-3.40919 2.666666,-4.62638 0,-1.21764 2.104996,-3.21686 4.679903,-4.44474 6.962466,-3.32018 16.13677,-12.353 19.40639,-19.10714 1.587099,-3.2785 2.666951,-6.1759 2.399671,-6.43865 -1.203362,-1.18295 -11.170465,3.43625 -14.769421,6.8448 -5.229915,4.95323 -11.716543,14.37176 -11.716543,17.01235 0,1.30685 -1.174488,2.09309 -3.126682,2.09309 -1.719676,0 -4.21267,1.2 -5.539984,2.66667 -6.081763,6.72026 -5.739468,0.8424 0.769564,-13.21492 l 3.958138,-8.54824 -2.70938,-2.884 c -2.820905,-3.00272 -2.400458,-4.6548 1.2039,-4.73054 2.019556,-0.0424 9.049891,-5.03337 7.966661,-5.65564 -0.28722,-0.165 -3.372217,-1.73337 -6.85555,-3.48528 C 23.479341,163.36758 22.9484,162.5326 26,160 c 3.183822,-2.64233 2.387465,-4.79032 -3.62877,-9.78774 l -5.62877,-4.67556 2.172354,-4.55548 c 2.59339,-5.43839 1.765482,-7.25335 -3.585814,-7.86091 -3.194472,-0.36268 -4.078049,-1.16592 -4.406519,-4.00585 -0.499558,-4.31917 1.936207,-5.26427 10.317139,-4.00318 4.916957,0.73986 6.063846,1.47925 6.846913,4.41414 1.959717,7.34492 10.107162,21.98618 14.913466,26.80005 4.219436,4.22608 5.88464,5.00583 10.666667,4.99484 11.580753,-0.0267 25,-9.30923 25,-17.29347 0,-8.12382 -11.730091,-11.67105 -14.983308,-4.53101 -1.443364,3.16784 -1.23055,3.78468 2.268292,6.57455 3.282789,2.61761 3.601036,3.39209 2.124796,5.17085 -0.954966,1.15065 -3.012832,2.11119 -4.57304,2.13451 -1.560207,0.0233 -3.987514,0.91316 -5.394014,1.97741 -2.812093,2.12781 -6.845726,0.25029 -5.196218,-2.41867 0.486097,-0.78653 0.776295,-5.33237 0.644881,-10.10189 -0.214461,-7.78369 0.131814,-9.05881 3.380991,-12.45023 3.773265,-3.93844 13.996142,-7.71569 20.881989,-7.71569 9.081096,0 18.178964,7.29723 18.178964,14.58101 0,1.7283 1.318956,2.70299 4.453421,3.29102 7.42391,1.39273 12.87991,9.2885 12.87991,18.63944 0,7.65348 -3.78571,17.73784 -7.98549,21.27172 -3.50388,2.94832 -5.14274,3.3114 -14.757353,3.26941 -10.408745,-0.0455 -10.782609,-0.15395 -9.935266,-2.88324 0.484263,-1.55981 1.297831,-4.57876 1.807928,-6.70877 1.508887,-6.30064 4.663079,-7.28475 8.648784,-2.6984 2.798238,3.21992 3.816416,3.64713 5.807276,2.43668 2.859723,-1.73872 3.841961,-8.61859 1.780428,-12.47059 -2.281966,-4.26389 -10.584424,-3.74327 -14.964634,0.93839 -7.659416,8.18654 -10.629165,19.35006 -7.279944,27.36588 2.374296,5.68249 12.545954,12.81078 26.211611,18.36909 l 8.66666,3.52504 v 7.87 c 0,7.54603 -0.14724,7.887 -3.57699,8.28323 -2.4881,0.28745 -4.01017,-0.39618 -5,-2.24568 z m 22.13255,1.61021 C 124.4,226.62223 124,223.06039 124,219.19594 v -7.02628 l 12.35674,-5.85346 c 21.90752,-10.37768 27.41404,-18.02262 23.02719,-31.96957 -4.11132,-13.07096 -12.93512,-19.79815 -19.94445,-15.20545 -3.81528,2.49986 -5.73494,9.42632 -3.39416,12.24677 2.40021,2.89207 7.51661,2.35493 9.89357,-1.03865 1.67792,-2.39556 2.54739,-2.69772 4.40893,-1.53219 1.27536,0.79852 2.52194,3.19135 2.77016,5.31737 0.24822,2.12604 1.08372,4.63002 1.85667,5.56442 2.30427,2.78556 0.0508,3.59244 -10.96163,3.92486 -10.36096,0.31276 -10.49274,0.27454 -14.4005,-4.17616 -4.80761,-5.47556 -7.56791,-15.9852 -6.34329,-24.15158 C 124.37093,147.94935 131.21546,140 136.43937,140 c 2.86073,0 3.69691,-0.86342 4.84221,-5 1.80927,-6.53459 2.57039,-7.54388 7.6522,-10.14729 8.71894,-4.4667 23.76744,-1.53407 30.64167,5.9714 2.4108,2.63219 2.96128,5.00203 3.21548,13.84256 0.25265,8.787 -0.0617,10.73841 -1.78447,11.07383 -1.15014,0.22393 -2.48252,-0.22607 -2.96084,-1 -0.47832,-0.77394 -2.5608,-1.40716 -4.62772,-1.40716 -2.06693,0 -4.53938,-0.94146 -5.49434,-2.09211 -1.47647,-1.77903 -1.15539,-2.55532 2.14546,-5.18733 3.45174,-2.75232 3.73407,-3.5176 2.54851,-6.9079 -1.71187,-4.89528 -6.75356,-5.66265 -11.69041,-1.77932 -7.25322,5.70538 -3.18882,15.12675 8.96773,20.78735 16.34199,7.60953 26.46935,0.84451 36.73399,-24.53813 l 3.61904,-8.94923 7.54273,-0.39987 7.54272,-0.39988 v 4.06654 c 0,3.63885 -0.42509,4.06654 -4.04184,4.06654 -4.65068,0 -6.5198,3.06031 -4.16859,6.8252 2.4581,3.93603 1.88107,5.63758 -3.78957,11.1748 -5.83816,5.70082 -6.51645,7.87206 -3.06299,9.80471 3.232,1.80872 0.46922,4.77103 -7.17093,7.68883 l -6.02388,2.30054 3.12891,2.40664 c 1.72089,1.32366 4.19772,2.41999 5.50406,2.4363 3.4,0.0424 4.54604,4.05848 1.74306,6.10808 -2.16451,1.58273 -2.0553,2.2855 1.67946,10.80718 6.84711,15.62319 6.95071,20.29774 0.29279,13.2107 -1.67256,-1.78036 -3.84709,-2.9277 -4.83229,-2.54964 -1.1244,0.43146 -2.53102,-1.08306 -3.77824,-4.0681 -2.61726,-6.26397 -13.69406,-18.05538 -19.10379,-20.33626 C 176.1013,175.44444 176,175.46794 176,179.13328 c 0,6.01839 10.1205,17.35015 20.39558,22.83659 2.71576,1.45011 4.93775,3.60711 4.93775,4.79336 0,1.18624 1.2,3.24279 2.66667,4.57011 6.6334,6.00314 1.24586,5.72902 -13.32818,-0.67814 -7.57944,-3.33213 -8.92512,-3.56928 -10.77165,-1.89818 -3.16972,2.86856 -5.23351,2.30714 -5.23351,-1.42368 0,-1.83334 -0.5083,-3.33334 -1.12958,-3.33334 -0.62127,0 -1.74726,-1.35 -2.50219,-3 -1.27493,-2.7865 -1.61631,-2.45441 -4.79704,4.66667 -1.88344,4.21667 -3.86021,7.66667 -4.39283,7.66667 -0.53261,0 -2.106,-1.02952 -3.4964,-2.28783 -2.42028,-2.19032 -2.78484,-2.01984 -8.55378,4 -6.6129,6.90049 -7.35639,7.22597 -9.79484,4.28783 -0.91292,-1.1 -2.78639,-2 -4.16326,-2 -1.95572,0 -2.50341,0.98696 -2.50341,4.51116 0,3.55113 -0.63843,4.68225 -3,5.31512 -3.84752,1.0311 -4.36949,1.02645 -5.44444,-0.0485 z M 116,208.0113 c 0,-1.46046 -1.2,-3.40478 -2.66667,-4.32072 -3.49319,-2.18154 -3.36416,-4.2661 0.69253,-11.18832 3.89947,-6.65394 5.68321,-6.51855 9.76332,0.74104 3.38997,6.03162 3.63357,8.84793 0.85747,9.91322 -1.111,0.42634 -2.59615,2.29052 -3.30033,4.14264 C 119.82281,211.30631 116,211.81551 116,208.0113 Z m -1.95193,-75.65414 c -1.85977,-2.7369 -3.3814,-6.04864 -3.3814,-7.35941 0,-1.78619 -0.79956,-2.23825 -3.19159,-1.80449 -3.68828,0.66881 -13.249663,-5.18894 -12.449819,-7.62734 C 95.863348,113.01093 104.14561,108 107.53051,108 c 2.23895,0 3.13616,-0.75687 3.13616,-2.64563 0,-1.4551 1.79537,-4.6051 3.98971,-6.999999 l 3.98972,-4.35437 2.70672,3.333334 c 1.4887,1.833333 3.06833,4.983335 3.51029,6.999995 0.61609,2.81126 1.58337,3.66667 4.14618,3.66667 4.10939,0 12.32404,4.89605 12.32404,7.34531 0,3.02973 -6.74876,7.32136 -11.51314,7.32136 -3.69055,0 -4.48686,0.5045 -4.48686,2.84262 0,3.19008 -4.91233,11.82405 -6.72734,11.82405 -0.64709,0 -2.69815,-2.23928 -4.55792,-4.97618 z M 28,122.88069 c 0,-0.61562 -1.5,-1.80276 -3.333334,-2.63808 -3.596224,-1.63855 -4.671029,-6.90928 -1.408938,-6.90928 1.058417,0 2.817636,-1.27528 3.909374,-2.83395 2.331928,-3.32929 6.402346,-2.79504 11.949588,1.56842 4.666512,3.67068 4.460601,5.32097 -1.114496,8.9322 C 33.383528,123.99171 28,125.00396 28,122.88069 Z m 172.66666,-0.96481 c -2.2,-1.13724 -4.88094,-2.93592 -5.95766,-3.99708 -1.7197,-1.69484 -1.63866,-2.24579 0.66666,-4.53217 1.44339,-1.43154 4.92308,-3.55757 7.73264,-4.72453 4.88455,-2.02879 5.1383,-2.00709 5.79266,0.49516 0.37637,1.43929 2.12764,2.97914 3.89168,3.42189 4.10637,1.03063 4.13826,4.46626 0.0559,6.01838 -1.7333,0.65901 -3.51448,2.14416 -3.95814,3.30033 -1.0135,2.64112 -3.14024,2.64578 -8.2237,0.018 z M 11.178722,106.07789 c -1.5061679,-3.92502 0.1202,-6.738041 4.161678,-7.198199 5.085409,-0.579018 6.39408,-2.735535 3.936326,-6.486542 -2.879342,-4.39443 -2.470084,-5.686513 3.38994,-10.702475 5.85046,-5.007776 6.460468,-7.039728 3.117095,-10.383102 -2.50702,-2.507019 -2.339801,-2.691983 6.787221,-7.507483 l 5.237651,-2.763432 -3.237651,-2.48868 C 32.790276,57.179202 30.283333,56.045955 29,56.029649 26.158672,55.993546 25.877248,51.648346 28.571421,49.412381 30.19901,48.061602 29.930497,46.534225 26.726112,38.915789 21.61611,26.766746 20.856796,24 22.632568,24 c 0.813413,0 2.719661,1.155914 4.236106,2.568696 1.516444,1.412784 3.586299,2.250531 4.599676,1.861662 1.035095,-0.397203 2.234711,0.376085 2.737518,1.764637 1.877389,5.184614 10.083231,16.375675 14.449294,19.705835 2.505513,1.911048 6.426065,3.848749 8.712337,4.306004 l 4.156859,0.831372 -2.076612,-4.970033 C 56.142339,42.157222 49.532211,34.801706 41.813727,30.445663 37.35577,27.929747 34.666666,25.518086 34.666666,24.035982 c 0,-1.306871 -0.9,-3.123063 -2,-4.035982 -1.1,-0.912918 -2,-2.526818 -2,-3.586442 0,-2.217058 1.579566,-1.864896 14.557063,3.245468 6.78816,2.673086 9.058322,3.056614 10.981908,1.855316 C 59.736614,19.30921 60.951858,19.632076 61.79755,23 c 0.414317,1.65 1.608697,4.169506 2.654176,5.5989 1.79619,2.455779 2.094324,2.217142 5.4137,-4.333333 3.740113,-7.380757 4.835433,-8.104169 7.467906,-4.932233 2.476012,2.983412 3.730031,2.51808 8.982953,-3.333334 4.64699,-5.176444 8.663883,-6.7288093 10.35038,-4 0.453226,0.733334 1.924442,1.333334 3.269371,1.333334 2.570514,0 4.063964,-2.489972 4.063964,-6.7757172 0,-1.9529075 0.94574,-2.5576167 4,-2.5576167 3.98288,0 4,0.032967 4,7.7033019 v 7.703302 l -9,3.86961 c -14.4427,6.209733 -23.632534,13.029295 -26.197942,19.44088 -2.048348,5.119327 -2.050255,6.078053 -0.02644,13.290897 4.09635,14.599287 14.050178,21.287419 21.135991,14.201606 3.810411,-3.810409 4.313001,-7.147688 1.629172,-10.818035 -2.28175,-3.120481 -8.325045,-1.888693 -9.541772,1.944871 -0.9327,2.938697 -4.504978,3.627247 -5.17204,0.996901 -0.232469,-0.916666 -1.164025,-3.766667 -2.070125,-6.333333 -3.043521,-8.621244 -3.176544,-8.497606 9.013955,-8.378067 9.596071,0.09409 11.538131,0.516609 14.299781,3.111039 11.76938,11.056765 8.58881,37.290759 -4.78027,39.428562 -4.378641,0.700173 -4.949746,1.291405 -6.062178,6.275825 C 93.549656,103.95801 87.516499,108 77.969488,108 67.125194,108 62.726434,106.63755 57.86037,101.77148 53.48551,97.396623 53.364147,96.982607 53.521163,86.968705 c 0.08884,-5.66612 0.363986,-10.664093 0.611426,-11.106607 0.24744,-0.442513 3.290839,-0.08323 6.76311,0.79842 6.385024,1.621223 10.773064,5.742603 7.413824,6.96329 -7.117075,2.586215 -7.266713,9.915201 -0.23846,11.679181 4.752155,1.192715 10.595603,-3.567001 10.595603,-8.63053 0,-10.278293 -20.424283,-20.426443 -31.005211,-15.405463 -5.026213,2.385094 -15.363838,18.086753 -19.047926,28.931604 -2.227747,6.55781 -4.113643,7.74904 -12.322043,7.78319 -2.593861,0.0108 -4.675481,-0.76436 -5.112764,-1.9039 z M 148,105.64019 c -3.54399,-1.94054 -5.11082,-4.00302 -6.51286,-8.573102 -1.60636,-5.236071 -2.46658,-6.172581 -6.62182,-7.209123 -13.22359,-3.298669 -15.689,-26.472032 -4.13198,-38.83802 3.70827,-3.967847 4.24603,-4.11576 14.55858,-4.004364 5.88944,0.06361 10.70808,0.6484 10.70808,1.299514 0,0.651115 -0.96907,4.146584 -2.15347,7.76771 -2.33617,7.142433 -5.30445,8.559747 -8.20377,3.917196 C 142.37925,54.774283 136,57.56257 136,64.214728 c 0,3.959137 4.48545,9.12184 7.91808,9.113622 8.29065,-0.01985 17.41525,-13.9771 17.41525,-26.638868 0,-7.438481 -0.0141,-7.464213 -7,-12.684775 -3.85,-2.877145 -11.2,-7.067247 -16.33333,-9.311337 -5.13334,-2.244091 -10.08334,-4.553546 -11,-5.132123 -2.49393,-1.574105 -2.21361,-15.0660633 0.33333,-16.0434155 3.21529,-1.2338235 6,0.527455 6,3.7948941 0,4.2928174 3.11691,6.5870454 6.49379,4.7797994 4.10648,-2.1977222 7.93329,-1.698224 9.50621,1.240809 0.78493,1.466668 2.90905,3.637641 4.72025,4.824388 2.63828,1.728664 3.68608,1.831566 5.26944,0.517497 3.09031,-2.564721 5.84806,-0.608155 8.77842,6.228097 l 2.69762,6.293294 2.59168,-3.931639 c 1.42543,-2.1624 2.59564,-4.646227 2.60047,-5.519615 0.0156,-2.822122 2.77779,-3.399377 5.30824,-1.109348 2.31836,2.09808 3.03079,1.982142 11.99411,-1.951882 5.24113,-2.30035 10.73552,-3.995331 12.20974,-3.766624 2.6676,0.413844 2.66723,0.429908 -0.0781,3.360081 -1.51719,1.619336 -2.7654,4.019336 -2.77381,5.333333 -0.009,1.47878 -2.12267,3.399302 -5.54604,5.040388 -3.04192,1.458218 -8.00798,5.128526 -11.03568,8.156239 -5.33578,5.335767 -11.24131,15.798578 -9.75574,17.284159 1.27938,1.279364 9.70528,-2.938017 14.79082,-7.403177 2.70093,-2.371452 7.06685,-7.804827 9.70204,-12.074165 2.67422,-4.332608 5.50636,-7.488018 6.40969,-7.141373 0.89015,0.341583 2.72359,-0.600101 4.07431,-2.092631 5.90877,-6.529112 5.56628,-0.785521 -0.78439,13.154518 -3.50296,7.689172 -3.68765,8.756509 -1.86397,10.771653 2.74773,3.036199 2.54716,5.36014 -0.46259,5.36014 -1.36777,0 -4.14188,1.301844 -6.16469,2.892986 l -3.67783,2.892985 5.78327,2.261168 c 6.14981,2.404479 9.85861,6.484878 6.87944,7.568732 -3.33234,1.21234 -1.5571,6.119158 4,11.056088 5.46548,4.855551 5.58382,5.126061 3.33333,7.619482 C 217.05,90.379969 216,92.808051 216,94.353844 c 0,2.196265 0.94709,2.901851 4.33333,3.228347 3.81029,0.367381 4.38376,0.940844 4.75115,4.751139 l 0.41781,4.33334 h -7.25605 c -6.9782,0 -7.31564,-0.16593 -8.81227,-4.33334 -3.72633,-10.376142 -11.78713,-24.27772 -16.59717,-28.623292 -4.88756,-4.415622 -5.64572,-4.666289 -12.09907,-4.000246 -6.57808,0.678917 -14.82124,4.269194 -19.66216,8.56377 -6.35436,5.637219 -3.27813,16.393106 4.68849,16.393106 7.27134,0 10.42158,-6.196111 4.9026,-9.642764 -3.89693,-2.433673 -3.37324,-6.15308 1,-7.102228 2.01667,-0.43769 4.95946,-1.41989 6.53954,-2.182668 1.58006,-0.762778 3.44312,-1.034426 4.14012,-0.60366 2.19484,1.35649 0.43577,22.526536 -2.10511,25.334492 -3.82372,4.22564 -9.43401,6.34279 -18.67456,7.04719 -7.15092,0.5451 -9.81711,0.17625 -13.56665,-1.87684 z M 115.71131,41.666667 C 110.35305,35.523833 109.45171,30.609211 113,26.883002 c 1.28333,-1.347683 2.96681,-3.547092 3.74107,-4.887579 1.33359,-2.308881 1.50915,-2.315243 3.33333,-0.12076 1.05908,1.274063 2.9756,3.473473 4.25893,4.887579 3.18184,3.50607 2.93441,6.400844 -1.04807,12.261585 -3.82286,5.625846 -4.7038,5.933242 -7.57395,2.642847 z" id="path3828" inkscape:connector-curvature="0"/>
  </g>
</svg>
